<?xml version="1.0" standalone="no"?>
<!DOCTYPE svg PUBLIC "-//W3C//DTD SVG 20010904//EN"
 "http://www.w3.org/TR/2001/REC-SVG-20010904/DTD/svg10.dtd">
<svg version="1.0" xmlns="http://www.w3.org/2000/svg"
 width="1024.000000pt" height="1024.000000pt" viewBox="0 0 1024.000000 1024.000000"
 preserveAspectRatio="xMidYMid meet">

<g transform="translate(0.000000,1024.000000) scale(0.100000,-0.100000)"
fill="#000000" stroke="none">
<path d="M5058 8425 c-59 -12 -113 -46 -146 -92 -23 -34 -60 -119 -227 -533
-512 -1269 -528 -1300 -702 -1369 -171 -67 -718 -125 -1718 -180 -162 -9 -189
-16 -244 -72 -54 -53 -75 -105 -75 -184 0 -121 8 -131 408 -493 646 -584 929
-858 1013 -980 36 -52 63 -128 63 -178 0 -30 -31 -218 -135 -819 -108 -624
-145 -858 -145 -913 0 -79 24 -143 72 -193 59 -61 117 -84 213 -84 105 0 113
4 600 295 760 455 911 543 960 566 59 28 165 32 220 10 19 -8 135 -74 257
-147 385 -227 655 -388 903 -536 132 -79 264 -153 295 -165 76 -30 197 -31
261 -2 95 44 151 127 157 234 4 68 -14 180 -193 1235 -55 323 -85 526 -82 552
16 146 178 315 1102 1153 88 80 199 180 247 223 106 96 138 151 138 241 0 124
-82 227 -197 249 -17 3 -168 13 -335 22 -620 32 -1017 67 -1300 115 -146 25
-230 51 -290 89 -116 74 -159 168 -730 1591 -50 124 -102 243 -117 265 -58 87
-157 123 -273 100z m101 -542 c18 -49 78 -216 133 -373 138 -392 305 -838 376
-1002 183 -421 270 -481 787 -538 299 -33 460 -41 928 -47 246 -3 446 -9 445
-13 -2 -4 -102 -89 -223 -188 -518 -425 -937 -784 -1045 -898 -132 -140 -183
-251 -182 -404 1 -98 29 -250 207 -1098 65 -309 115 -565 113 -568 -3 -2 -178
113 -389 257 -541 369 -962 647 -1028 678 -49 23 -68 26 -161 26 -97 0 -110
-2 -170 -31 -83 -39 -359 -221 -938 -617 -255 -174 -467 -317 -472 -317 -5 0
-7 6 -5 13 3 6 23 98 45 202 21 105 58 278 80 385 23 107 77 371 121 585 78
377 80 394 76 500 -9 226 -71 310 -512 689 -198 171 -579 489 -812 680 -67 55
-120 103 -117 107 2 4 110 8 240 9 614 2 1285 54 1504 116 157 45 257 138 350
329 87 179 167 385 401 1045 184 516 200 560 209 560 4 0 22 -39 39 -87z"/>
</g>
</svg>
