<?xml version="1.0" standalone="no"?>
<!DOCTYPE svg PUBLIC "-//W3C//DTD SVG 20010904//EN"
 "http://www.w3.org/TR/2001/REC-SVG-20010904/DTD/svg10.dtd">
<svg version="1.0" xmlns="http://www.w3.org/2000/svg"
 width="1024.000000pt" height="1024.000000pt" viewBox="0 0 1024.000000 1024.000000"
 preserveAspectRatio="xMidYMid meet">

<g transform="translate(0.000000,1024.000000) scale(0.100000,-0.100000)"
fill="#000000" stroke="none">
<path d="M4850 7554 c-328 -50 -606 -184 -833 -403 -218 -210 -351 -451 -419
-761 l-23 -105 0 -1100 0 -1100 26 -115 c76 -330 230 -595 466 -803 480 -423
1222 -506 1802 -201 424 224 689 583 779 1059 15 81 17 192 17 1145 0 1189 2
1160 -76 1394 -76 228 -181 398 -349 566 -230 231 -527 376 -870 425 -132 18
-393 18 -520 -1z m485 -188 c326 -50 577 -176 788 -395 181 -187 288 -406 332
-676 12 -75 15 -258 15 -1110 0 -1101 0 -1099 -54 -1286 -135 -466 -552 -821
-1061 -904 -116 -19 -364 -19 -480 0 -285 46 -529 169 -724 365 -186 186 -299
396 -357 660 -18 80 -19 150 -19 1180 l0 1095 23 94 c116 476 442 809 924 941
177 48 434 63 613 36z"/>
<path d="M5068 6970 c-52 -16 -98 -52 -126 -98 l-27 -47 -3 -369 -3 -369 27
-54 c64 -132 236 -162 338 -59 24 23 47 59 54 82 8 29 12 144 12 395 0 352 0
354 -24 405 -45 96 -149 144 -248 114z"/>
</g>
</svg>
