<?xml version="1.0" standalone="no"?>
<!DOCTYPE svg PUBLIC "-//W3C//DTD SVG 20010904//EN"
 "http://www.w3.org/TR/2001/REC-SVG-20010904/DTD/svg10.dtd">
<svg version="1.0" xmlns="http://www.w3.org/2000/svg"
 width="1024.000000pt" height="1024.000000pt" viewBox="0 0 1024.000000 1024.000000"
 preserveAspectRatio="xMidYMid meet">

<g transform="translate(0.000000,1024.000000) scale(0.100000,-0.100000)"
fill="#000000" stroke="none">
<path d="M7555 7610 c-394 -180 -694 -242 -1455 -300 -688 -53 -1082 -125
-1495 -276 -166 -61 -476 -217 -627 -317 -486 -321 -865 -795 -1057 -1323
-157 -432 -180 -901 -65 -1309 59 -208 155 -405 278 -568 l57 -76 -34 -68
c-90 -179 -206 -458 -279 -673 -101 -298 -118 -393 -79 -456 56 -93 237 -81
284 19 9 19 40 105 68 193 64 199 159 441 239 607 33 70 62 127 63 127 2 0 47
-29 100 -64 270 -178 570 -287 942 -343 167 -25 553 -25 715 0 390 60 747 198
1070 413 518 345 970 950 1276 1708 311 768 497 1658 481 2295 -5 213 -14 268
-55 346 -51 98 -109 135 -207 134 -65 0 -81 -5 -220 -69z m169 -276 c3 -9 6
-89 6 -178 0 -711 -260 -1757 -609 -2455 -282 -562 -637 -991 -1046 -1262
-137 -91 -371 -204 -530 -255 -655 -211 -1313 -131 -1867 229 l-88 56 37 68
c130 240 256 436 424 658 337 443 701 809 1119 1124 234 176 365 260 718 459
96 55 124 128 82 219 -25 56 -70 83 -137 83 -44 0 -71 -10 -185 -68 -449 -230
-997 -654 -1395 -1080 -230 -246 -433 -498 -615 -762 -73 -106 -212 -333 -243
-398 -11 -23 -23 -42 -27 -42 -22 0 -144 234 -179 342 -91 284 -112 603 -59
887 28 155 97 357 180 529 112 232 244 421 427 612 412 431 953 695 1674 819
194 34 428 59 879 96 633 52 1039 139 1312 279 121 62 114 60 122 40z"/>
</g>
</svg>
