<?xml version="1.0" standalone="no"?>
<!DOCTYPE svg PUBLIC "-//W3C//DTD SVG 20010904//EN"
 "http://www.w3.org/TR/2001/REC-SVG-20010904/DTD/svg10.dtd">
<svg version="1.0" xmlns="http://www.w3.org/2000/svg"
 width="1024.000000pt" height="1024.000000pt" viewBox="0 0 1024.000000 1024.000000"
 preserveAspectRatio="xMidYMid meet">

<g transform="translate(0.000000,1024.000000) scale(0.100000,-0.100000)"
fill="#000000" stroke="none">
<path d="M3850 8480 c-199 -23 -429 -112 -595 -229 -372 -261 -582 -730 -562
-1259 16 -455 210 -858 530 -1104 246 -188 533 -288 832 -288 369 0 697 136
941 391 132 138 217 282 288 487 65 187 81 296 81 547 0 171 -4 240 -18 310
-86 424 -324 772 -666 975 -232 136 -554 202 -831 170z m414 -415 c264 -77
455 -242 584 -500 78 -156 112 -315 112 -519 0 -214 -41 -399 -126 -568 -49
-97 -84 -147 -163 -230 -300 -319 -758 -363 -1141 -110 -79 52 -195 166 -247
242 -70 103 -141 275 -172 415 -19 83 -27 253 -19 375 18 273 123 507 306 682
124 118 263 192 432 229 124 27 312 21 434 -16z"/>
<path d="M6369 8230 c-334 -42 -626 -256 -788 -579 -50 -98 -108 -284 -127
-406 -22 -146 -15 -416 15 -556 40 -184 116 -368 211 -510 61 -90 220 -247
312 -307 293 -190 703 -211 1022 -51 293 146 496 422 584 792 24 102 26 130
27 322 0 184 -3 223 -23 313 -100 446 -334 750 -699 908 -147 63 -373 95 -534
74z m257 -381 c289 -52 512 -287 606 -637 25 -97 35 -297 19 -412 -15 -115
-54 -238 -109 -345 -37 -72 -64 -108 -137 -181 -75 -75 -105 -98 -175 -132
-88 -42 -207 -72 -282 -72 -195 2 -402 105 -518 258 -246 324 -274 862 -62
1202 61 98 106 151 167 197 145 111 318 153 491 122z"/>
<path d="M6215 5590 c-288 -26 -567 -94 -779 -190 l-70 -32 102 -38 c55 -21
160 -69 231 -105 l131 -68 108 21 c411 81 816 73 1193 -22 557 -141 888 -424
1072 -916 69 -184 117 -410 138 -648 12 -128 11 -142 -4 -166 -39 -58 -191
-107 -457 -147 -41 -6 -226 -14 -410 -18 -313 -6 -337 -7 -370 -27 -65 -38
-100 -115 -86 -189 9 -44 59 -103 104 -122 49 -20 296 -36 462 -28 521 23 867
112 1015 260 98 97 122 202 105 456 -43 649 -271 1156 -673 1503 -345 297
-881 466 -1529 480 -101 3 -228 1 -283 -4z"/>
<path d="M3765 5466 c-430 -42 -746 -125 -1055 -280 -379 -189 -659 -471 -858
-863 -189 -374 -276 -749 -277 -1199 l0 -220 43 -86 c60 -123 143 -198 306
-277 326 -159 757 -220 1781 -252 561 -17 1365 8 1793 57 809 92 1156 252
1213 559 35 186 -78 777 -212 1118 -197 497 -473 841 -870 1083 -290 177 -670
293 -1144 349 -182 22 -547 27 -720 11z m653 -411 c953 -99 1504 -513 1751
-1317 91 -296 137 -655 95 -744 -57 -120 -403 -203 -1029 -249 -823 -59 -2027
-40 -2591 40 -314 45 -538 121 -624 210 l-35 36 1 147 c3 297 83 649 210 912
168 350 390 578 729 745 254 126 508 195 820 224 156 14 515 12 673 -4z"/>
</g>
</svg>
