<?xml version="1.0" standalone="no"?>
<!DOCTYPE svg PUBLIC "-//W3C//DTD SVG 20010904//EN"
 "http://www.w3.org/TR/2001/REC-SVG-20010904/DTD/svg10.dtd">
<svg version="1.0" xmlns="http://www.w3.org/2000/svg"
 width="1024.000000pt" height="1024.000000pt" viewBox="0 0 1024.000000 1024.000000"
 preserveAspectRatio="xMidYMid meet">

<g transform="translate(0.000000,1024.000000) scale(0.100000,-0.100000)"
fill="#000000" stroke="none">
<path d="M4970 8640 c-94 -34 -111 -47 -615 -470 -902 -756 -1636 -1343 -2305
-1843 -228 -171 -457 -342 -509 -381 -114 -86 -151 -141 -158 -239 -6 -75 7
-127 46 -189 60 -94 149 -127 413 -154 172 -17 213 -28 242 -67 l21 -28 5
-1797 5 -1797 33 -67 c40 -81 121 -158 202 -191 l55 -22 865 0 865 0 67 33
c83 41 158 120 187 197 21 55 21 69 21 1028 0 1057 -2 1025 56 1138 33 65 107
140 171 172 100 51 147 57 465 57 169 0 320 -5 354 -11 134 -25 257 -120 317
-247 l32 -67 5 -1015 5 -1015 29 -59 c39 -79 102 -140 184 -179 l67 -32 860 0
860 0 66 31 c78 37 138 89 172 147 58 98 55 -1 61 1918 4 1381 8 1772 17 1793
22 48 69 63 254 81 94 9 190 21 215 27 169 41 251 137 252 293 0 124 -43 192
-179 285 -43 29 -100 70 -128 90 -27 20 -162 119 -300 220 -413 302 -721 542
-1449 1128 -195 157 -845 693 -1283 1058 -127 106 -203 156 -267 178 -70 23
-205 21 -276 -4z m463 -788 c292 -251 634 -539 912 -767 786 -647 1098 -899
1402 -1129 101 -76 180 -142 178 -146 -3 -4 -31 -11 -62 -15 -147 -17 -227
-66 -262 -161 -21 -55 -21 -61 -21 -1860 l0 -1805 -25 -24 -24 -25 -566 0
c-552 0 -565 0 -585 20 -20 20 -20 33 -20 908 0 556 -4 911 -10 952 -52 326
-279 568 -620 662 -84 23 -91 23 -605 23 -402 0 -533 -3 -579 -14 -83 -18
-230 -80 -298 -124 -134 -87 -260 -240 -313 -382 -56 -147 -55 -133 -55 -1101
l0 -895 -25 -25 -25 -24 -564 2 c-527 3 -567 4 -583 21 -16 16 -19 50 -24 380
-3 199 -5 1003 -2 1787 2 944 0 1444 -7 1480 -21 113 -103 180 -246 200 -104
14 -111 18 -75 44 349 251 1807 1446 2701 2213 46 40 86 73 87 73 2 0 144
-121 316 -268z"/>
</g>
</svg>
